<svg width="200" height="84" viewBox="0 0 200 84" fill="none" xmlns="http://www.w3.org/2000/svg">
<g filter="url(#filter0_d_0_1)">
<path d="M58.3476 52.2976C57.9505 51.9041 57.9585 51.2844 58.2765 50.8257C60.4715 47.6588 61.7561 43.8242 61.7561 39.6923C61.7561 28.8165 52.8564 20 41.878 20C30.8997 20 22 28.8165 22 39.6923C22 47.9844 27.0909 54.5455 34.4238 57.8462C38.0877 59.4954 41.2727 60 46.2263 60C51.7751 60 57.0258 58.7356 61.7008 56.4817C62.7273 55.9868 63.4545 55.1509 61.5113 54.2993C61.0607 54.1018 60.6225 53.8814 60.1984 53.6396C59.5124 53.2879 58.8886 52.8338 58.3476 52.2976Z" fill="#7573E3"/>
<path d="M34.3637 34.8181C34.3637 36.5753 33.5496 37.9999 32.5455 37.9999C31.5413 37.9999 30.7273 36.5753 30.7273 34.8181C30.7273 33.0608 31.5413 31.6362 32.5455 31.6362C33.5496 31.6362 34.3637 33.0608 34.3637 34.8181Z" fill="white"/>
<path d="M43.091 34.8181C43.091 36.5753 42.2769 37.9999 41.2728 37.9999C40.2686 37.9999 39.4546 36.5753 39.4546 34.8181C39.4546 33.0608 40.2686 31.6362 41.2728 31.6362C42.2769 31.6362 43.091 33.0608 43.091 34.8181Z" fill="white"/>
</g>
<g filter="url(#filter1_d_0_1)">
<path d="M69.36 43.936C69.36 44.848 69.712 45.304 70.416 45.304C70.656 45.304 70.864 45.232 71.04 45.088C71.232 44.928 71.376 44.712 71.472 44.44C71.568 44.168 71.616 43.856 71.616 43.504V40.288C71.616 39.744 71.712 39.272 71.904 38.872C72.096 38.456 72.376 38.136 72.744 37.912C73.112 37.688 73.544 37.576 74.04 37.576C74.904 37.576 75.576 37.768 76.056 38.152C76.536 38.52 76.776 39.208 76.776 40.216V46.456C76.776 47.432 76.576 48.104 76.176 48.472C75.776 48.84 75.072 49.024 74.064 49.024C73.632 49.024 73.264 48.984 72.96 48.904C72.656 48.808 72.408 48.672 72.216 48.496C72.04 48.32 71.904 48.088 71.808 47.8C71.152 48.232 70.456 48.536 69.72 48.712C69 48.888 68.192 48.976 67.296 48.976C66.16 48.976 65.344 48.536 64.848 47.656C64.352 46.76 64.104 45.296 64.104 43.264C64.104 42.256 64.128 41.44 64.176 40.816C64.224 40.176 64.296 39.632 64.392 39.184C64.504 38.72 64.664 38.376 64.872 38.152C65.096 37.928 65.352 37.768 65.64 37.672C65.944 37.576 66.336 37.528 66.816 37.528C67.712 37.528 68.352 37.696 68.736 38.032C69.136 38.368 69.336 38.872 69.336 39.544L69.36 43.936ZM83.4 49.144C82.136 49.144 81.088 48.632 80.256 47.608C79.424 46.568 79.008 45.152 79.008 43.36C79.008 41.536 79.416 40.088 80.232 39.016C81.064 37.928 82.12 37.384 83.4 37.384C84.696 37.384 85.896 37.84 87 38.752C87.432 37.952 88.128 37.552 89.088 37.552C89.952 37.552 90.624 37.744 91.104 38.128C91.584 38.496 91.824 39.184 91.824 40.192V46.432C91.824 47.392 91.624 48.064 91.224 48.448C90.824 48.816 90.12 49 89.112 49C88.056 49 87.36 48.704 87.024 48.112C86 48.8 84.792 49.144 83.4 49.144ZM86.664 41.056C86.392 40.592 86.04 40.36 85.608 40.36C85.192 40.36 84.856 40.664 84.6 41.272C84.344 41.88 84.216 42.576 84.216 43.36C84.216 44.096 84.336 44.752 84.576 45.328C84.816 45.904 85.152 46.192 85.584 46.192C86.032 46.192 86.392 45.976 86.664 45.544V41.056ZM106.873 45.4C106.873 46.696 106.657 47.624 106.225 48.184C105.793 48.728 105.129 49 104.233 49C103.209 49 102.505 48.68 102.121 48.04C101.081 48.792 99.8246 49.168 98.3526 49.168C97.1046 49.168 96.0646 48.656 95.2326 47.632C94.4006 46.592 93.9846 45.176 93.9846 43.384C93.9846 41.56 94.3926 40.112 95.2086 39.04C96.0246 37.952 97.0726 37.408 98.3526 37.408C99.5046 37.408 100.585 37.776 101.593 38.512V35.44C101.593 34.464 101.833 33.744 102.313 33.28C102.793 32.8 103.433 32.56 104.233 32.56C105.113 32.56 105.769 32.736 106.201 33.088C106.649 33.44 106.873 34.152 106.873 35.224V45.4ZM101.641 45.544L101.617 41.056C101.345 40.608 100.993 40.384 100.561 40.384C100.289 40.384 100.041 40.536 99.8166 40.84C99.6086 41.144 99.4486 41.52 99.3366 41.968C99.2246 42.416 99.1686 42.888 99.1686 43.384C99.1686 44.12 99.2886 44.776 99.5286 45.352C99.7686 45.928 100.105 46.216 100.537 46.216C100.617 46.216 100.697 46.208 100.777 46.192C100.857 46.176 100.929 46.16 100.993 46.144C101.057 46.112 101.121 46.08 101.185 46.048C101.249 46 101.305 45.952 101.353 45.904C101.401 45.856 101.449 45.8 101.497 45.736C101.545 45.672 101.593 45.608 101.641 45.544ZM114.241 46.432C114.241 47.392 114.041 48.064 113.641 48.448C113.241 48.816 112.529 49 111.505 49C110.561 49 109.921 48.784 109.585 48.352C109.249 47.904 109.081 47.176 109.081 46.168V40.264C109.081 39.72 109.177 39.248 109.369 38.848C109.561 38.432 109.841 38.112 110.209 37.888C110.577 37.664 111.009 37.552 111.505 37.552C112.721 37.552 113.521 37.904 113.905 38.608C114.833 37.904 115.729 37.552 116.593 37.552C118.273 37.552 119.113 38.352 119.113 39.952C119.113 40.592 118.929 41.112 118.561 41.512C118.193 41.912 117.713 42.112 117.121 42.112C116.769 42.112 116.481 42.04 116.257 41.896C116.049 41.752 115.849 41.608 115.657 41.464C115.481 41.32 115.273 41.248 115.033 41.248C114.681 41.248 114.417 41.368 114.241 41.608V46.432ZM125.657 43.936C125.657 44.848 126.009 45.304 126.713 45.304C126.953 45.304 127.161 45.232 127.337 45.088C127.529 44.928 127.673 44.712 127.769 44.44C127.865 44.168 127.913 43.856 127.913 43.504V40.288C127.913 39.744 128.009 39.272 128.201 38.872C128.393 38.456 128.673 38.136 129.041 37.912C129.409 37.688 129.841 37.576 130.337 37.576C131.201 37.576 131.873 37.768 132.353 38.152C132.833 38.52 133.073 39.208 133.073 40.216V46.456C133.073 47.432 132.873 48.104 132.473 48.472C132.073 48.84 131.369 49.024 130.361 49.024C129.929 49.024 129.561 48.984 129.257 48.904C128.953 48.808 128.705 48.672 128.513 48.496C128.337 48.32 128.201 48.088 128.105 47.8C127.449 48.232 126.753 48.536 126.017 48.712C125.297 48.888 124.489 48.976 123.593 48.976C122.457 48.976 121.641 48.536 121.145 47.656C120.649 46.76 120.401 45.296 120.401 43.264C120.401 42.256 120.425 41.44 120.473 40.816C120.521 40.176 120.593 39.632 120.689 39.184C120.801 38.72 120.961 38.376 121.169 38.152C121.393 37.928 121.649 37.768 121.937 37.672C122.241 37.576 122.633 37.528 123.113 37.528C124.009 37.528 124.649 37.696 125.033 38.032C125.433 38.368 125.633 38.872 125.633 39.544L125.657 43.936ZM144.977 37.192C144.977 36.52 144.713 36.064 144.185 35.824C143.673 35.568 142.809 35.44 141.593 35.44V39.112C142.345 39.112 142.953 39.056 143.417 38.944C143.897 38.832 144.273 38.64 144.545 38.368C144.833 38.08 144.977 37.688 144.977 37.192ZM145.289 43.6C145.289 43.072 145.153 42.664 144.881 42.376C144.609 42.088 144.217 41.888 143.705 41.776C143.193 41.648 142.489 41.584 141.593 41.584V45.736C142.841 45.736 143.769 45.584 144.377 45.28C144.985 44.96 145.289 44.4 145.289 43.6ZM148.241 40.456C149.729 41.336 150.473 42.512 150.473 43.984C150.473 44.624 150.345 45.24 150.089 45.832C149.849 46.408 149.481 46.936 148.985 47.416C148.505 47.896 147.865 48.28 147.065 48.568C146.265 48.84 145.361 48.976 144.353 48.976H138.785C137.809 48.976 137.105 48.728 136.673 48.232C136.257 47.736 136.049 46.848 136.049 45.568V35.416C136.049 34.872 136.145 34.392 136.337 33.976C136.529 33.56 136.833 33.224 137.249 32.968C137.681 32.712 138.193 32.584 138.785 32.584H144.281C145.881 32.6 147.209 33.04 148.265 33.904C149.337 34.752 149.873 35.848 149.873 37.192C149.873 37.624 149.833 38.008 149.753 38.344C149.689 38.664 149.585 38.952 149.441 39.208C149.297 39.464 149.129 39.688 148.937 39.88C148.745 40.072 148.513 40.264 148.241 40.456ZM160.52 43.312C160.52 42.48 160.416 41.752 160.208 41.128C160 40.488 159.696 40.168 159.296 40.168C159.024 40.168 158.784 40.328 158.576 40.648C158.368 40.968 158.216 41.36 158.12 41.824C158.024 42.288 157.976 42.784 157.976 43.312C157.976 44.128 158.088 44.848 158.312 45.472C158.536 46.08 158.856 46.384 159.272 46.384C159.688 46.384 160 46.08 160.208 45.472C160.416 44.864 160.52 44.144 160.52 43.312ZM159.272 49.168C158.024 49.168 156.896 48.944 155.888 48.496C154.896 48.048 154.096 47.376 153.488 46.48C152.896 45.584 152.6 44.536 152.6 43.336C152.6 41.512 153.224 40.064 154.472 38.992C155.72 37.92 157.32 37.384 159.272 37.384C161.224 37.384 162.816 37.92 164.048 38.992C165.28 40.064 165.896 41.512 165.896 43.336C165.896 45.144 165.264 46.568 164 47.608C162.752 48.648 161.176 49.168 159.272 49.168ZM168.874 43.864V41.032C168.474 41.016 168.154 40.952 167.914 40.84C167.674 40.712 167.498 40.552 167.386 40.36C167.29 40.168 167.242 39.928 167.242 39.64C167.242 38.728 167.794 38.232 168.898 38.152V35.92C168.898 35.312 169.338 34.768 170.218 34.288C171.098 33.792 171.97 33.544 172.834 33.544C173.362 33.544 173.706 33.696 173.866 34C174.026 34.304 174.106 34.76 174.106 35.368L174.13 38.128H174.778C175.658 38.128 176.258 38.248 176.578 38.488C176.914 38.712 177.082 39.128 177.082 39.736C177.082 39.992 177.034 40.208 176.938 40.384C176.842 40.56 176.682 40.696 176.458 40.792C176.25 40.888 175.994 40.96 175.69 41.008C175.386 41.04 175.01 41.056 174.562 41.056H174.13V43.696C174.13 43.952 174.138 44.168 174.154 44.344C174.186 44.504 174.226 44.632 174.274 44.728C174.322 44.824 174.386 44.888 174.466 44.92C174.562 44.952 174.674 44.968 174.802 44.968C174.994 44.968 175.154 44.904 175.282 44.776C175.41 44.632 175.506 44.48 175.57 44.32C175.65 44.144 175.746 43.992 175.858 43.864C175.986 43.72 176.13 43.648 176.29 43.648C176.658 43.648 176.938 43.736 177.13 43.912C177.338 44.088 177.442 44.304 177.442 44.56C177.442 44.992 177.354 45.456 177.178 45.952C177.018 46.448 176.778 46.928 176.458 47.392C176.138 47.856 175.69 48.24 175.114 48.544C174.554 48.848 173.922 49 173.218 49C171.634 49 170.514 48.6 169.858 47.8C169.202 47 168.874 45.688 168.874 43.864Z" fill="#7573E3"/>
</g>
<defs>
<filter id="filter0_d_0_1" x="0" y="0" width="84.7286" height="84" filterUnits="userSpaceOnUse" color-interpolation-filters="sRGB">
<feFlood flood-opacity="0" result="BackgroundImageFix"/>
<feColorMatrix in="SourceAlpha" type="matrix" values="0 0 0 0 0 0 0 0 0 0 0 0 0 0 0 0 0 0 127 0" result="hardAlpha"/>
<feOffset dy="2"/>
<feGaussianBlur stdDeviation="11"/>
<feComposite in2="hardAlpha" operator="out"/>
<feColorMatrix type="matrix" values="0 0 0 0 0 0 0 0 0 0 0 0 0 0 0 0 0 0 0.12 0"/>
<feBlend mode="normal" in2="BackgroundImageFix" result="effect1_dropShadow_0_1"/>
<feBlend mode="normal" in="SourceGraphic" in2="effect1_dropShadow_0_1" result="shape"/>
</filter>
<filter id="filter1_d_0_1" x="42.104" y="12.5601" width="157.338" height="60.6079" filterUnits="userSpaceOnUse" color-interpolation-filters="sRGB">
<feFlood flood-opacity="0" result="BackgroundImageFix"/>
<feColorMatrix in="SourceAlpha" type="matrix" values="0 0 0 0 0 0 0 0 0 0 0 0 0 0 0 0 0 0 127 0" result="hardAlpha"/>
<feOffset dy="2"/>
<feGaussianBlur stdDeviation="11"/>
<feComposite in2="hardAlpha" operator="out"/>
<feColorMatrix type="matrix" values="0 0 0 0 0 0 0 0 0 0 0 0 0 0 0 0 0 0 0.12 0"/>
<feBlend mode="normal" in2="BackgroundImageFix" result="effect1_dropShadow_0_1"/>
<feBlend mode="normal" in="SourceGraphic" in2="effect1_dropShadow_0_1" result="shape"/>
</filter>
</defs>
</svg>